<svg version="1.1" id="Lager_1" xmlns="http://www.w3.org/2000/svg" xmlns:xlink="http://www.w3.org/1999/xlink" x="0px" y="0px" viewBox="0 0 22.4 22.4" style="enable-background:new 0 0 22.4 22.4;" xml:space="preserve">
<style type="text/css">
	.st0{fill:#50AA00;}
	.st1{fill:#FFFFFF;}
</style>
<g>
	<g>
		<rect x="-0.1" y="0" class="st0" width="23" height="20.2"/>
		<polygon class="st1" points="6.5,9.6 11,9.6 11,7.6 10.3,7.6 10.3,3.1 11,3.1 11,1 6.5,1 6.5,3.1 7.1,3.1 7.1,4.4 5.1,4.4     5.1,3.1 5.6,3.1 5.6,1 1,1 1,3.1 1.6,3.1 1.6,7.6 1,7.6 1,9.6 5.6,9.6 5.6,7.6 5.1,7.6 5.1,6.2 7.1,6.2 7.1,7.6 6.5,7.6   "/>
		<polygon class="st1" points="5.6,10.7 1,10.7 1,12.7 1.6,12.7 1.6,17.2 1,17.2 1,19.2 5.6,19.2 5.6,17.2 5,17.2 5,12.7 5.6,12.7       "/>
		<polygon class="st1" points="6.5,19.2 11,19.2 11,17.2 10.5,17.2 8.3,14.3 10.1,12.7 10.9,12.7 10.9,10.7 6.5,10.7 6.5,12.7     7.2,12.7 5.1,14.7 6.9,17.2 6.5,17.2   "/>
		<path class="st1" d="M18,13.4c0,0.2-0.1,0.4-0.2,0.5s-0.3,0.2-0.5,0.2s-0.5,0-1,0H16v-1.6h0.3c0.5,0,0.8,0,1,0s0.4,0.1,0.5,0.2    C17.9,13,18,13.1,18,13.4 M21.4,17.2l-1.2-2c0.4-0.2,0.7-0.4,0.9-0.8c0.2-0.4,0.3-0.8,0.3-1.2c0-0.6-0.2-1.1-0.6-1.5    s-0.9-0.7-1.5-0.8c-0.2,0-0.4-0.1-0.7-0.1c-0.3,0-0.6,0-0.9-0.1c-0.4,0-0.7,0-1.2,0H12v2h0.7v4.5H12v2.1h4.7v-2.1H16v-1.4h1    l1.9,3.5H22v-2.1H21.4z"/>
	</g>
</g>
</svg>